# xmcd CD database file
#
# Track frame offsets:
#	150
#	16605
#	33429
#	55371
#	76706
#	99065
#	118876
#	128845
#	154236
#	171416
#	188217
#	210524
#	232941
#	256804
#	272186
#	290044
#	295326
#
# Disc length: 3988 seconds
#
# Revision: 0
# Processed by: cddbd v1.5.2PL0 Copyright (c) Steve Scherf et al.
# Submitted via: CDex 1.51
#
DISCID=ea0f9211
DTITLE=Trish Hatley - Trish, Hans and Phil
DYEAR=2005
DGENRE=Jazz
TTITLE0=Tuxedo Junction
TTITLE1=Too Long At The Fair
TTITLE2=Eleanor Rigby
TTITLE3=You'd Be So Nice To Come Home To
TTITLE4=Slow Down
TTITLE5=I've Grown Accustomed To Her Face
TTITLE6=Just In Love
TTITLE7=Stolen Moments
TTITLE8=Rio de Janeiro Blue
TTITLE9=Got To Get You Into My Life
TTITLE10=A Night In Tunisia
TTITLE11=I've Got You Under My Skin/Night And Day
TTITLE12=Jeanine
TTITLE13=Peel Me A Grape
TTITLE14=Route 66
TTITLE15=Brahms Lullaby
TTITLE16=A Night In Tunisia Outtake
EXTD=YEAR: 2005
EXTT0=
EXTT1=
EXTT2=
EXTT3=
EXTT4=
EXTT5=
EXTT6=
EXTT7=
EXTT8=
EXTT9=
EXTT10=
EXTT11=
EXTT12=
EXTT13=
EXTT14=
EXTT15=
EXTT16=
PLAYORDER=
